<svg id="svg" version="1.1" xmlns="http://www.w3.org/2000/svg" xmlns:xlink="http://www.w3.org/1999/xlink" width="400" height="400" viewBox="0, 0, 400,400"><g id="svgg"><path id="path0" d="M185.400 4.000 C 185.261 4.225,183.329 4.400,180.976 4.400 C 178.459 4.400,176.800 4.559,176.800 4.800 C 176.800 5.031,175.533 5.200,173.800 5.200 C 172.067 5.200,170.800 5.369,170.800 5.600 C 170.800 5.826,169.667 6.000,168.200 6.000 C 166.733 6.000,165.600 6.174,165.600 6.400 C 165.600 6.620,164.610 6.800,163.400 6.800 C 162.190 6.800,161.200 6.980,161.200 7.200 C 161.200 7.420,160.390 7.600,159.400 7.600 C 158.410 7.600,157.600 7.754,157.600 7.943 C 157.600 8.131,156.323 8.404,154.762 8.549 C 153.201 8.694,151.593 8.990,151.188 9.206 C 150.784 9.423,150.001 9.600,149.450 9.600 C 148.898 9.600,148.336 9.780,148.200 10.000 C 148.064 10.220,147.421 10.400,146.771 10.400 C 146.121 10.400,145.277 10.558,144.895 10.751 C 143.728 11.340,141.392 12.000,140.472 12.000 C 139.992 12.000,139.600 12.180,139.600 12.400 C 139.600 12.620,139.060 12.800,138.400 12.800 C 137.740 12.800,137.200 12.980,137.200 13.200 C 137.200 13.420,136.660 13.600,136.000 13.600 C 135.340 13.600,134.800 13.780,134.800 14.000 C 134.800 14.220,134.438 14.400,133.995 14.400 C 133.552 14.400,132.787 14.608,132.295 14.862 C 130.369 15.858,129.983 16.000,129.205 16.000 C 128.762 16.000,128.400 16.180,128.400 16.400 C 128.400 16.620,127.950 16.800,127.400 16.800 C 126.850 16.800,126.400 16.980,126.400 17.200 C 126.400 17.420,126.040 17.600,125.600 17.600 C 125.160 17.600,124.800 17.780,124.800 18.000 C 124.800 18.220,124.260 18.400,123.600 18.400 C 122.940 18.400,122.400 18.580,122.400 18.800 C 122.400 19.020,122.040 19.200,121.600 19.200 C 121.160 19.200,120.800 19.380,120.800 19.600 C 120.800 19.820,120.440 20.000,120.000 20.000 C 119.560 20.000,119.200 20.180,119.200 20.400 C 119.200 20.620,118.840 20.800,118.400 20.800 C 117.960 20.800,117.600 20.980,117.600 21.200 C 117.600 21.420,117.060 21.600,116.400 21.600 C 115.740 21.600,115.200 21.780,115.200 22.000 C 115.200 22.220,114.840 22.400,114.400 22.400 C 113.960 22.400,113.600 22.580,113.600 22.800 C 113.600 23.020,113.240 23.200,112.800 23.200 C 112.360 23.200,112.000 23.380,112.000 23.600 C 112.000 23.820,111.640 24.000,111.200 24.000 C 110.760 24.000,110.400 24.180,110.400 24.400 C 110.400 24.620,110.204 24.800,109.965 24.800 C 109.258 24.800,102.000 28.508,102.000 28.869 C 102.000 29.051,101.640 29.200,101.200 29.200 C 100.760 29.200,100.400 29.380,100.400 29.600 C 100.400 29.820,100.122 30.000,99.783 30.000 C 99.444 30.000,98.780 30.360,98.308 30.800 C 97.836 31.240,97.213 31.600,96.925 31.600 C 96.636 31.600,96.400 31.780,96.400 32.000 C 96.400 32.220,96.164 32.400,95.875 32.400 C 95.587 32.400,94.964 32.760,94.492 33.200 C 94.020 33.640,93.474 34.000,93.279 34.000 C 93.084 34.000,92.598 34.360,92.200 34.800 C 91.802 35.240,91.234 35.600,90.938 35.600 C 90.642 35.600,90.400 35.780,90.400 36.000 C 90.400 36.220,90.080 36.400,89.688 36.400 C 89.297 36.400,88.717 36.760,88.400 37.200 C 88.083 37.640,87.575 38.000,87.272 38.000 C 86.969 38.000,86.217 38.540,85.600 39.200 C 84.983 39.860,84.257 40.400,83.986 40.400 C 83.716 40.400,83.203 40.719,82.847 41.109 C 82.491 41.499,81.750 42.023,81.200 42.274 C 80.145 42.754,78.807 43.759,76.378 45.900 C 75.567 46.615,74.791 47.200,74.654 47.200 C 74.516 47.200,73.485 48.100,72.361 49.200 C 71.238 50.300,70.154 51.200,69.952 51.200 C 69.750 51.200,68.448 52.325,67.059 53.700 C 65.669 55.075,63.442 57.144,62.110 58.298 C 58.523 61.403,53.913 66.006,52.793 67.600 C 52.252 68.370,50.907 69.936,49.805 71.079 C 47.252 73.727,44.549 76.874,43.045 78.951 C 42.398 79.844,41.538 80.929,41.134 81.363 C 40.730 81.796,40.400 82.299,40.400 82.479 C 40.400 82.660,39.860 83.372,39.200 84.063 C 38.540 84.754,38.000 85.522,38.000 85.771 C 38.000 86.020,37.640 86.483,37.200 86.800 C 36.760 87.117,36.400 87.609,36.400 87.892 C 36.400 88.175,35.860 88.972,35.200 89.663 C 34.540 90.354,34.000 91.070,34.000 91.255 C 34.000 91.575,33.186 92.672,32.100 93.816 C 31.825 94.106,31.600 94.586,31.600 94.883 C 31.600 95.180,31.240 95.683,30.800 96.000 C 30.360 96.317,30.000 96.897,30.000 97.288 C 30.000 97.680,29.850 98.000,29.668 98.000 C 29.485 98.000,29.080 98.495,28.768 99.100 C 28.456 99.705,28.111 100.290,28.001 100.400 C 27.759 100.640,27.405 101.291,25.382 105.200 C 24.528 106.850,23.718 108.290,23.583 108.400 C 23.447 108.510,23.081 109.185,22.770 109.900 C 22.459 110.615,22.069 111.200,21.902 111.200 C 21.736 111.200,21.600 111.560,21.600 112.000 C 21.600 112.440,21.420 112.800,21.200 112.800 C 20.980 112.800,20.800 113.160,20.800 113.600 C 20.800 114.040,20.620 114.400,20.400 114.400 C 20.180 114.400,20.000 114.760,20.000 115.200 C 20.000 115.640,19.820 116.000,19.600 116.000 C 19.380 116.000,19.200 116.360,19.200 116.800 C 19.200 117.240,19.020 117.600,18.800 117.600 C 18.580 117.600,18.400 117.960,18.400 118.400 C 18.400 118.840,18.220 119.200,18.000 119.200 C 17.780 119.200,17.600 119.549,17.600 119.976 C 17.600 120.403,17.420 120.864,17.200 121.000 C 16.980 121.136,16.800 121.687,16.800 122.224 C 16.800 122.761,16.620 123.200,16.400 123.200 C 16.180 123.200,16.000 123.560,16.000 124.000 C 16.000 124.440,15.820 124.800,15.600 124.800 C 15.380 124.800,15.200 125.160,15.200 125.600 C 15.200 126.040,15.020 126.400,14.800 126.400 C 14.580 126.400,14.400 126.850,14.400 127.400 C 14.400 127.950,14.220 128.400,14.000 128.400 C 13.780 128.400,13.600 128.749,13.600 129.176 C 13.600 129.603,13.420 130.064,13.200 130.200 C 12.980 130.336,12.800 130.887,12.800 131.424 C 12.800 131.961,12.653 132.400,12.472 132.400 C 12.292 132.400,11.896 133.311,11.593 134.425 C 11.290 135.539,10.897 136.540,10.721 136.649 C 10.544 136.758,10.400 137.199,10.400 137.629 C 10.400 138.059,10.237 138.723,10.037 139.105 C 9.502 140.128,8.400 143.978,8.400 144.822 C 8.400 145.224,8.220 145.664,8.000 145.800 C 7.780 145.936,7.600 146.667,7.600 147.424 C 7.600 148.181,7.420 148.800,7.200 148.800 C 6.980 148.800,6.800 149.340,6.800 150.000 C 6.800 150.660,6.620 151.200,6.400 151.200 C 6.180 151.200,6.000 151.920,6.000 152.800 C 6.000 153.680,5.820 154.400,5.600 154.400 C 5.380 154.400,5.200 155.120,5.200 156.000 C 5.200 156.880,5.020 157.600,4.800 157.600 C 4.580 157.600,4.400 158.309,4.400 159.176 C 4.400 160.043,4.220 160.864,4.000 161.000 C 3.780 161.136,3.600 161.946,3.600 162.800 C 3.600 163.654,3.420 164.464,3.200 164.600 C 2.980 164.736,2.800 165.726,2.800 166.800 C 2.800 167.874,2.620 168.864,2.400 169.000 C 2.180 169.136,2.000 170.317,2.000 171.624 C 2.000 172.941,1.822 174.000,1.600 174.000 C 1.376 174.000,1.200 175.107,1.200 176.520 C 1.200 178.003,0.994 179.246,0.700 179.540 C 0.311 179.930,0.200 185.623,0.200 205.287 C 0.200 225.129,0.307 230.569,0.700 230.700 C 1.030 230.810,1.200 231.731,1.200 233.410 C 1.200 234.808,1.380 236.064,1.600 236.200 C 1.820 236.336,2.000 237.427,2.000 238.624 C 2.000 239.821,2.180 240.800,2.400 240.800 C 2.620 240.800,2.800 241.700,2.800 242.800 C 2.800 243.900,2.980 244.800,3.200 244.800 C 3.420 244.800,3.600 245.700,3.600 246.800 C 3.600 247.900,3.780 248.800,4.000 248.800 C 4.220 248.800,4.400 249.509,4.400 250.376 C 4.400 251.243,4.580 252.064,4.800 252.200 C 5.020 252.336,5.200 253.056,5.200 253.800 C 5.200 254.544,5.380 255.264,5.600 255.400 C 5.820 255.536,6.000 256.166,6.000 256.800 C 6.000 257.434,6.180 258.064,6.400 258.200 C 6.620 258.336,6.800 259.067,6.800 259.824 C 6.800 260.581,6.980 261.200,7.200 261.200 C 7.420 261.200,7.600 261.740,7.600 262.400 C 7.600 263.060,7.780 263.600,8.000 263.600 C 8.220 263.600,8.400 264.012,8.400 264.516 C 8.400 266.270,9.644 270.530,10.847 272.895 C 11.041 273.277,11.200 273.952,11.200 274.395 C 11.200 274.838,11.380 275.200,11.600 275.200 C 11.820 275.200,12.000 275.740,12.000 276.400 C 12.000 277.060,12.180 277.600,12.400 277.600 C 12.620 277.600,12.800 277.960,12.800 278.400 C 12.800 278.840,12.980 279.200,13.200 279.200 C 13.420 279.200,13.600 279.740,13.600 280.400 C 13.600 281.060,13.780 281.600,14.000 281.600 C 14.220 281.600,14.400 281.960,14.400 282.400 C 14.400 282.840,14.580 283.200,14.800 283.200 C 15.020 283.200,15.200 283.639,15.200 284.176 C 15.200 284.713,15.380 285.264,15.600 285.400 C 15.820 285.536,16.000 285.997,16.000 286.424 C 16.000 286.851,16.180 287.200,16.400 287.200 C 16.620 287.200,16.800 287.560,16.800 288.000 C 16.800 288.440,16.980 288.800,17.200 288.800 C 17.420 288.800,17.600 289.160,17.600 289.600 C 17.600 290.040,17.780 290.400,18.000 290.400 C 18.220 290.400,18.400 290.665,18.400 290.988 C 18.400 291.311,18.760 292.217,19.200 293.000 C 19.640 293.783,20.000 294.689,20.000 295.012 C 20.000 295.335,20.180 295.600,20.400 295.600 C 20.620 295.600,20.800 295.960,20.800 296.400 C 20.800 296.840,20.980 297.200,21.200 297.200 C 21.420 297.200,21.600 297.436,21.600 297.725 C 21.600 298.013,21.960 298.636,22.400 299.108 C 22.840 299.580,23.200 300.244,23.200 300.583 C 23.200 300.922,23.380 301.200,23.600 301.200 C 23.820 301.200,24.000 301.560,24.000 302.000 C 24.000 302.440,24.180 302.800,24.400 302.800 C 24.620 302.800,24.800 303.074,24.800 303.408 C 24.800 303.742,25.209 304.687,25.709 305.508 C 26.209 306.329,26.884 307.540,27.209 308.200 C 27.534 308.860,28.115 309.749,28.500 310.175 C 28.885 310.602,29.200 311.187,29.200 311.475 C 29.200 311.764,29.380 312.000,29.600 312.000 C 29.820 312.000,30.000 312.236,30.000 312.525 C 30.000 312.813,30.360 313.436,30.800 313.908 C 31.240 314.380,31.600 315.004,31.600 315.295 C 31.600 315.586,31.960 316.083,32.400 316.400 C 32.840 316.717,33.200 317.257,33.200 317.600 C 33.200 317.943,33.560 318.483,34.000 318.800 C 34.440 319.117,34.800 319.580,34.800 319.829 C 34.800 320.078,35.295 320.806,35.900 321.448 C 36.505 322.089,37.255 323.106,37.568 323.707 C 37.880 324.308,38.285 324.800,38.468 324.800 C 38.650 324.800,38.800 324.998,38.800 325.240 C 38.800 325.481,39.340 326.183,40.000 326.800 C 40.660 327.417,41.200 328.126,41.200 328.377 C 41.200 328.840,41.547 329.328,43.009 330.919 C 43.453 331.404,44.258 332.430,44.796 333.200 C 45.334 333.970,46.455 335.261,47.287 336.069 C 48.119 336.876,48.800 337.672,48.800 337.836 C 48.800 338.001,50.825 340.164,53.300 342.643 C 55.775 345.123,59.608 349.007,61.817 351.276 C 65.654 355.215,67.259 356.672,69.227 358.000 C 69.716 358.330,70.714 359.185,71.445 359.900 C 72.175 360.615,72.938 361.200,73.138 361.200 C 73.339 361.200,74.245 361.920,75.152 362.800 C 76.059 363.680,76.908 364.400,77.040 364.400 C 77.171 364.400,77.783 364.940,78.400 365.600 C 79.017 366.260,79.692 366.800,79.901 366.800 C 80.110 366.800,80.846 367.340,81.537 368.000 C 82.228 368.660,83.025 369.200,83.308 369.200 C 83.591 369.200,84.083 369.560,84.400 370.000 C 84.717 370.440,85.162 370.800,85.388 370.800 C 85.615 370.801,86.323 371.251,86.962 371.800 C 87.601 372.350,88.264 372.800,88.434 372.800 C 88.604 372.800,88.981 373.025,89.271 373.301 C 89.562 373.576,90.487 374.161,91.327 374.601 C 92.167 375.040,93.194 375.715,93.610 376.100 C 94.026 376.485,94.644 376.800,94.983 376.800 C 95.322 376.800,95.600 376.980,95.600 377.200 C 95.600 377.420,95.870 377.600,96.200 377.600 C 96.530 377.600,96.800 377.780,96.800 378.000 C 96.800 378.220,97.070 378.400,97.400 378.400 C 97.730 378.400,98.000 378.580,98.000 378.800 C 98.000 379.020,98.345 379.200,98.767 379.200 C 99.188 379.200,99.593 379.335,99.667 379.500 C 99.834 379.876,101.964 381.175,102.900 381.471 C 103.285 381.593,103.600 381.852,103.600 382.047 C 103.600 382.241,103.960 382.400,104.400 382.400 C 104.840 382.400,105.200 382.580,105.200 382.800 C 105.200 383.020,105.560 383.200,106.000 383.200 C 106.440 383.200,106.800 383.380,106.800 383.600 C 106.800 383.820,107.160 384.000,107.600 384.000 C 108.040 384.000,108.400 384.146,108.400 384.325 C 108.400 384.504,109.030 384.898,109.800 385.200 C 110.570 385.502,111.200 385.896,111.200 386.075 C 111.200 386.254,111.560 386.400,112.000 386.400 C 112.440 386.400,112.800 386.580,112.800 386.800 C 112.800 387.020,113.160 387.200,113.600 387.200 C 114.040 387.200,114.400 387.380,114.400 387.600 C 114.400 387.820,114.636 388.000,114.925 388.000 C 115.214 388.000,116.195 388.360,117.106 388.800 C 118.016 389.240,119.040 389.600,119.381 389.600 C 119.721 389.600,120.000 389.780,120.000 390.000 C 120.000 390.220,120.360 390.400,120.800 390.400 C 121.240 390.400,121.600 390.564,121.600 390.765 C 121.600 390.966,122.352 391.257,123.272 391.412 C 124.192 391.568,125.547 392.033,126.284 392.447 C 127.021 392.861,127.979 393.200,128.412 393.200 C 128.845 393.200,129.200 393.380,129.200 393.600 C 129.200 393.820,129.562 394.000,130.005 394.000 C 130.448 394.000,131.168 394.180,131.605 394.400 C 132.042 394.620,132.758 394.980,133.195 395.200 C 133.632 395.420,134.352 395.600,134.795 395.600 C 135.238 395.600,135.600 395.780,135.600 396.000 C 135.600 396.241,137.267 396.400,139.800 396.400 C 142.333 396.400,144.000 396.241,144.000 396.000 C 144.000 395.780,144.462 395.600,145.026 395.600 C 146.284 395.600,150.400 391.656,150.400 390.450 C 150.400 390.008,150.580 389.536,150.800 389.400 C 151.058 389.241,151.200 382.396,151.200 370.176 L 151.200 351.200 148.824 351.200 C 147.517 351.200,146.336 351.380,146.200 351.600 C 146.064 351.820,144.883 352.000,143.576 352.000 C 142.259 352.000,141.200 352.178,141.200 352.400 C 141.200 352.640,139.600 352.800,137.200 352.800 C 134.800 352.800,133.200 352.960,133.200 353.200 C 133.200 353.433,131.867 353.600,130.000 353.600 C 128.133 353.600,126.800 353.433,126.800 353.200 C 126.800 352.965,125.408 352.800,123.424 352.800 C 121.567 352.800,119.936 352.620,119.800 352.400 C 119.664 352.180,118.753 352.000,117.776 352.000 C 116.799 352.000,116.000 351.820,116.000 351.600 C 116.000 351.380,115.280 351.200,114.400 351.200 C 113.520 351.200,112.800 351.020,112.800 350.800 C 112.800 350.580,112.260 350.400,111.600 350.400 C 110.940 350.400,110.400 350.220,110.400 350.000 C 110.400 349.780,110.065 349.600,109.656 349.600 C 108.854 349.600,103.887 347.195,103.667 346.700 C 103.593 346.535,103.271 346.400,102.950 346.400 C 102.629 346.400,101.980 346.040,101.508 345.600 C 101.036 345.160,100.413 344.800,100.125 344.800 C 99.836 344.800,99.600 344.649,99.600 344.464 C 99.600 344.280,99.143 343.920,98.585 343.666 C 96.513 342.722,90.444 336.643,89.232 334.298 C 88.920 333.694,88.537 333.200,88.381 333.200 C 88.225 333.200,87.873 332.660,87.600 332.000 C 87.327 331.340,86.945 330.800,86.751 330.800 C 86.558 330.800,86.400 330.455,86.400 330.033 C 86.400 329.612,86.265 329.207,86.100 329.133 C 85.935 329.060,85.375 328.100,84.856 327.000 C 84.337 325.900,83.752 324.687,83.556 324.305 C 83.360 323.923,83.200 323.338,83.200 323.005 C 83.200 322.672,83.020 322.400,82.800 322.400 C 82.580 322.400,82.400 322.040,82.400 321.600 C 82.400 321.160,82.220 320.800,82.000 320.800 C 81.780 320.800,81.600 320.458,81.600 320.041 C 81.600 319.623,81.034 318.228,80.341 316.941 C 79.649 315.653,78.884 314.196,78.641 313.703 C 78.399 313.210,78.065 312.805,77.900 312.803 C 77.735 312.801,77.600 312.440,77.600 312.000 C 77.600 311.560,77.420 311.200,77.200 311.200 C 76.980 311.200,76.800 311.012,76.800 310.783 C 76.800 310.553,76.350 309.880,75.800 309.287 C 75.250 308.693,74.800 308.015,74.800 307.780 C 74.800 307.544,74.480 307.002,74.089 306.575 C 73.698 306.149,72.938 305.170,72.401 304.400 C 71.174 302.643,65.660 297.200,65.106 297.200 C 64.879 297.200,64.403 296.884,64.047 296.497 C 63.691 296.111,62.905 295.540,62.300 295.230 C 61.695 294.919,61.200 294.515,61.200 294.332 C 61.200 294.150,60.975 294.000,60.700 294.000 C 59.563 293.998,53.622 288.198,53.605 287.071 C 53.598 286.602,54.664 285.600,55.171 285.600 C 55.407 285.600,55.600 285.420,55.600 285.200 C 55.600 284.980,56.140 284.800,56.800 284.800 C 57.460 284.800,58.000 284.620,58.000 284.400 C 58.000 284.165,59.392 284.000,61.376 284.000 C 63.233 284.000,64.864 284.180,65.000 284.400 C 65.136 284.620,65.957 284.800,66.824 284.800 C 67.691 284.800,68.400 284.980,68.400 285.200 C 68.400 285.420,68.839 285.600,69.376 285.600 C 69.913 285.600,70.464 285.780,70.600 286.000 C 70.736 286.220,71.197 286.400,71.624 286.400 C 72.051 286.400,72.400 286.580,72.400 286.800 C 72.400 287.020,72.760 287.200,73.200 287.200 C 73.640 287.200,74.000 287.380,74.000 287.600 C 74.000 287.820,74.360 288.000,74.800 288.000 C 75.240 288.000,75.600 288.180,75.600 288.400 C 75.600 288.620,75.782 288.800,76.004 288.800 C 76.498 288.800,80.547 291.595,80.733 292.064 C 80.807 292.249,81.101 292.400,81.387 292.400 C 82.019 292.400,87.200 297.364,87.200 297.969 C 87.200 298.206,87.920 299.141,88.800 300.048 C 89.680 300.955,90.400 301.945,90.400 302.248 C 90.400 302.552,90.559 302.800,90.754 302.800 C 90.949 302.800,91.426 303.475,91.813 304.300 C 92.597 305.969,94.583 308.985,95.683 310.175 C 96.078 310.602,96.400 311.104,96.400 311.291 C 96.400 311.749,103.534 318.800,103.997 318.800 C 104.199 318.800,104.814 319.250,105.364 319.800 C 105.914 320.350,106.642 320.800,106.982 320.800 C 107.322 320.800,107.600 320.935,107.600 321.101 C 107.600 321.412,109.555 322.463,112.973 323.991 C 114.058 324.476,115.903 324.972,117.073 325.092 C 118.243 325.213,119.200 325.467,119.200 325.656 C 119.200 325.845,123.250 326.000,128.200 326.000 C 133.150 326.000,137.200 325.846,137.200 325.657 C 137.200 325.469,138.505 325.194,140.100 325.046 C 141.695 324.899,143.060 324.603,143.133 324.389 C 143.207 324.175,143.792 324.000,144.433 324.000 C 145.075 324.000,145.600 323.820,145.600 323.600 C 145.600 323.380,146.140 323.200,146.800 323.200 C 147.460 323.200,148.000 323.020,148.000 322.800 C 148.000 322.580,148.315 322.399,148.700 322.399 C 150.629 322.394,152.000 320.902,152.000 318.806 C 152.000 317.703,152.180 316.800,152.400 316.800 C 152.620 316.800,152.800 316.080,152.800 315.200 C 152.800 314.320,152.980 313.600,153.200 313.600 C 153.420 313.600,153.600 313.071,153.600 312.424 C 153.600 311.777,153.780 311.136,154.000 311.000 C 154.220 310.864,154.400 310.313,154.400 309.776 C 154.400 309.239,154.580 308.800,154.800 308.800 C 155.020 308.800,155.200 308.458,155.200 308.041 C 155.200 307.339,155.665 306.372,158.559 301.066 C 159.139 300.003,160.690 298.066,162.007 296.762 C 164.544 294.248,165.020 292.935,163.500 292.641 C 162.263 292.403,154.350 291.544,151.300 291.317 C 149.925 291.215,148.800 290.967,148.800 290.766 C 148.800 290.565,147.900 290.400,146.800 290.400 C 145.700 290.400,144.800 290.220,144.800 290.000 C 144.800 289.780,144.080 289.600,143.200 289.600 C 142.320 289.600,141.600 289.420,141.600 289.200 C 141.600 288.980,140.981 288.800,140.224 288.800 C 139.467 288.800,138.736 288.620,138.600 288.400 C 138.464 288.180,137.733 288.000,136.976 288.000 C 136.219 288.000,135.600 287.820,135.600 287.600 C 135.600 287.380,135.060 287.200,134.400 287.200 C 133.740 287.200,133.200 287.020,133.200 286.800 C 133.200 286.580,132.660 286.400,132.000 286.400 C 131.340 286.400,130.800 286.220,130.800 286.000 C 130.800 285.780,130.260 285.600,129.600 285.600 C 128.940 285.600,128.400 285.420,128.400 285.200 C 128.400 284.980,127.860 284.800,127.200 284.800 C 126.540 284.800,126.000 284.620,126.000 284.400 C 126.000 284.180,125.640 284.000,125.200 284.000 C 124.760 284.000,124.400 283.820,124.400 283.600 C 124.400 283.380,123.950 283.200,123.400 283.200 C 122.850 283.200,122.400 283.020,122.400 282.800 C 122.400 282.580,122.040 282.400,121.600 282.400 C 121.160 282.400,120.800 282.220,120.800 282.000 C 120.800 281.780,120.440 281.600,120.000 281.600 C 119.560 281.600,119.200 281.420,119.200 281.200 C 119.200 280.980,118.840 280.800,118.400 280.800 C 117.960 280.800,117.600 280.620,117.600 280.400 C 117.600 280.180,117.240 280.000,116.800 280.000 C 116.360 280.000,116.000 279.820,116.000 279.600 C 116.000 279.380,115.640 279.200,115.200 279.200 C 114.760 279.200,114.400 279.041,114.400 278.847 C 114.400 278.652,114.085 278.393,113.700 278.271 C 112.873 278.009,110.836 276.794,110.121 276.137 C 109.844 275.883,109.074 275.434,108.409 275.140 C 107.744 274.846,107.200 274.469,107.200 274.302 C 107.200 274.136,107.002 274.000,106.760 274.000 C 106.519 274.000,105.817 273.460,105.200 272.800 C 104.583 272.140,103.880 271.600,103.636 271.600 C 103.199 271.600,92.400 261.015,92.400 260.587 C 92.400 260.465,92.217 260.149,91.993 259.883 C 90.477 258.086,90.000 257.444,90.000 257.201 C 90.000 257.049,89.550 256.401,89.000 255.762 C 88.451 255.123,88.001 254.390,88.000 254.133 C 88.000 253.877,87.865 253.607,87.700 253.533 C 87.324 253.366,86.025 251.236,85.729 250.300 C 85.607 249.915,85.348 249.600,85.153 249.600 C 84.959 249.600,84.800 249.240,84.800 248.800 C 84.800 248.360,84.620 248.000,84.400 248.000 C 84.180 248.000,84.000 247.640,84.000 247.200 C 84.000 246.760,83.820 246.400,83.600 246.400 C 83.380 246.400,83.200 246.040,83.200 245.600 C 83.200 245.160,83.020 244.800,82.800 244.800 C 82.580 244.800,82.400 244.440,82.400 244.000 C 82.400 243.560,82.220 243.200,82.000 243.200 C 81.780 243.200,81.600 242.750,81.600 242.200 C 81.600 241.650,81.420 241.200,81.200 241.200 C 80.980 241.200,80.800 240.840,80.800 240.400 C 80.800 239.960,80.620 239.600,80.400 239.600 C 80.180 239.600,80.000 239.060,80.000 238.400 C 80.000 237.740,79.820 237.200,79.600 237.200 C 79.380 237.200,79.200 236.660,79.200 236.000 C 79.200 235.340,79.020 234.800,78.800 234.800 C 78.580 234.800,78.400 234.260,78.400 233.600 C 78.400 232.940,78.220 232.400,78.000 232.400 C 77.780 232.400,77.600 231.680,77.600 230.800 C 77.600 229.920,77.420 229.200,77.200 229.200 C 76.980 229.200,76.800 228.570,76.800 227.800 C 76.800 227.030,76.620 226.400,76.400 226.400 C 76.180 226.400,76.000 225.500,76.000 224.400 C 76.000 223.300,75.843 222.400,75.651 222.400 C 75.320 222.400,74.861 218.628,73.951 208.400 C 73.396 202.163,73.387 188.968,73.935 184.800 C 74.181 182.930,74.598 179.735,74.862 177.700 C 75.125 175.665,75.489 174.000,75.670 174.000 C 75.852 174.000,76.000 173.471,76.000 172.824 C 76.000 172.177,76.180 171.536,76.400 171.400 C 76.620 171.264,76.800 170.724,76.800 170.200 C 76.800 169.676,76.980 169.136,77.200 169.000 C 77.420 168.864,77.600 168.313,77.600 167.776 C 77.600 167.239,77.780 166.800,78.000 166.800 C 78.220 166.800,78.400 166.260,78.400 165.600 C 78.400 164.940,78.580 164.400,78.800 164.400 C 79.020 164.400,79.200 164.040,79.200 163.600 C 79.200 163.160,79.380 162.800,79.600 162.800 C 79.820 162.800,80.000 162.440,80.000 162.000 C 80.000 161.560,80.180 161.200,80.400 161.200 C 80.620 161.200,80.800 160.840,80.800 160.400 C 80.800 159.960,80.980 159.600,81.200 159.600 C 81.420 159.600,81.600 159.240,81.600 158.800 C 81.600 158.360,81.746 158.000,81.925 158.000 C 82.104 158.000,82.498 157.370,82.800 156.600 C 83.102 155.830,83.496 155.200,83.675 155.200 C 83.854 155.200,84.000 154.840,84.000 154.400 C 84.000 153.960,84.150 153.600,84.332 153.600 C 84.515 153.600,84.920 153.105,85.232 152.500 C 85.545 151.895,86.115 151.051,86.500 150.625 C 86.885 150.198,87.200 149.695,87.200 149.506 C 87.200 149.318,87.650 148.714,88.200 148.164 C 88.750 147.614,89.200 147.011,89.200 146.824 C 89.200 146.637,89.695 145.937,90.300 145.269 C 92.030 143.357,92.844 142.264,93.183 141.400 C 93.561 140.438,93.253 138.000,92.755 138.000 C 92.560 138.000,92.400 137.406,92.400 136.680 C 92.400 135.954,92.237 135.189,92.038 134.980 C 91.286 134.192,89.910 122.825,89.933 117.600 C 89.957 112.424,91.500 98.800,92.064 98.800 C 92.249 98.800,92.400 98.260,92.400 97.600 C 92.400 96.940,92.580 96.400,92.800 96.400 C 93.020 96.400,93.200 95.680,93.200 94.800 C 93.200 93.920,93.380 93.200,93.600 93.200 C 93.820 93.200,94.000 92.750,94.000 92.200 C 94.000 91.650,94.180 91.200,94.400 91.200 C 94.620 91.200,94.800 90.750,94.800 90.200 C 94.800 89.650,94.980 89.200,95.200 89.200 C 95.420 89.200,95.600 88.930,95.600 88.600 C 95.600 88.100,96.400 88.000,100.400 88.000 C 103.333 88.000,105.200 88.156,105.200 88.400 C 105.200 88.620,106.100 88.800,107.200 88.800 C 108.300 88.800,109.200 88.980,109.200 89.200 C 109.200 89.420,109.819 89.600,110.576 89.600 C 111.333 89.600,112.064 89.780,112.200 90.000 C 112.336 90.220,112.876 90.400,113.400 90.400 C 113.924 90.400,114.451 90.559,114.571 90.754 C 114.692 90.948,115.598 91.229,116.586 91.377 C 117.573 91.525,118.486 91.816,118.614 92.023 C 118.742 92.230,119.287 92.400,119.824 92.400 C 120.361 92.400,120.800 92.580,120.800 92.800 C 120.800 93.020,121.160 93.200,121.600 93.200 C 122.040 93.200,122.400 93.380,122.400 93.600 C 122.400 93.820,122.940 94.000,123.600 94.000 C 124.260 94.000,124.800 94.180,124.800 94.400 C 124.800 94.620,125.070 94.800,125.400 94.800 C 125.730 94.800,126.000 94.980,126.000 95.200 C 126.000 95.420,126.360 95.600,126.800 95.600 C 127.240 95.600,127.600 95.780,127.600 96.000 C 127.600 96.220,127.960 96.400,128.400 96.400 C 128.840 96.400,129.200 96.580,129.200 96.800 C 129.200 97.020,129.560 97.200,130.000 97.200 C 130.440 97.200,130.800 97.380,130.800 97.600 C 130.800 97.820,131.160 98.000,131.600 98.000 C 132.040 98.000,132.400 98.180,132.400 98.400 C 132.400 98.620,132.760 98.800,133.200 98.800 C 133.640 98.800,134.000 98.980,134.000 99.200 C 134.000 99.420,134.236 99.600,134.525 99.600 C 134.813 99.600,135.436 99.960,135.908 100.400 C 136.380 100.840,137.044 101.200,137.383 101.200 C 137.722 101.200,138.000 101.380,138.000 101.600 C 138.000 101.820,138.320 102.000,138.712 102.000 C 139.103 102.000,139.683 102.360,140.000 102.800 C 140.317 103.240,140.897 103.600,141.288 103.600 C 141.680 103.600,142.000 103.780,142.000 104.000 C 142.000 104.220,142.270 104.400,142.600 104.400 C 142.930 104.400,143.200 104.550,143.200 104.732 C 143.200 104.915,143.695 105.320,144.300 105.632 C 144.905 105.945,145.580 106.338,145.800 106.506 C 148.701 108.723,153.271 109.504,154.233 107.947 C 154.351 107.756,154.941 107.600,155.544 107.600 C 156.147 107.600,156.811 107.438,157.020 107.241 C 157.229 107.044,158.165 106.774,159.100 106.641 C 160.035 106.508,161.565 106.292,162.500 106.159 C 163.435 106.026,164.371 105.756,164.580 105.559 C 164.789 105.362,165.813 105.200,166.856 105.200 C 167.899 105.200,168.864 105.020,169.000 104.800 C 169.136 104.580,170.306 104.400,171.600 104.400 C 172.894 104.400,174.064 104.220,174.200 104.000 C 174.336 103.780,175.776 103.600,177.400 103.600 C 179.024 103.600,180.464 103.420,180.600 103.200 C 180.742 102.971,182.804 102.800,185.424 102.800 C 188.208 102.800,190.000 102.643,190.000 102.400 C 190.000 101.855,209.063 101.855,209.400 102.400 C 209.542 102.630,211.663 102.800,214.400 102.800 C 217.137 102.800,219.258 102.970,219.400 103.200 C 219.536 103.420,220.976 103.600,222.600 103.600 C 224.224 103.600,225.664 103.780,225.800 104.000 C 225.936 104.220,227.081 104.400,228.344 104.400 C 229.607 104.400,230.811 104.563,231.020 104.761 C 231.229 104.960,232.210 105.219,233.200 105.338 C 234.190 105.456,235.990 105.753,237.200 105.997 C 238.410 106.241,240.120 106.540,241.000 106.661 C 241.880 106.783,242.771 107.044,242.980 107.241 C 243.189 107.438,243.786 107.600,244.306 107.600 C 244.827 107.600,245.556 107.762,245.926 107.960 C 247.383 108.737,251.030 108.913,251.705 108.238 C 252.056 107.887,252.454 107.600,252.589 107.600 C 252.725 107.600,254.170 106.700,255.800 105.600 C 257.430 104.500,258.952 103.600,259.182 103.600 C 259.412 103.600,259.600 103.442,259.600 103.249 C 259.600 103.055,260.140 102.673,260.800 102.400 C 261.460 102.127,262.000 101.745,262.000 101.551 C 262.000 101.358,262.345 101.200,262.767 101.200 C 263.188 101.200,263.593 101.065,263.667 100.900 C 263.834 100.524,265.964 99.225,266.900 98.929 C 267.285 98.807,267.600 98.548,267.600 98.353 C 267.600 98.159,267.960 98.000,268.400 98.000 C 268.840 98.000,269.200 97.820,269.200 97.600 C 269.200 97.380,269.560 97.200,270.000 97.200 C 270.440 97.200,270.800 97.020,270.800 96.800 C 270.800 96.580,271.160 96.400,271.600 96.400 C 272.040 96.400,272.400 96.220,272.400 96.000 C 272.400 95.780,272.760 95.600,273.200 95.600 C 273.640 95.600,274.000 95.420,274.000 95.200 C 274.000 94.980,274.270 94.800,274.600 94.800 C 274.930 94.800,275.200 94.620,275.200 94.400 C 275.200 94.180,275.740 94.000,276.400 94.000 C 277.060 94.000,277.600 93.820,277.600 93.600 C 277.600 93.380,277.960 93.200,278.400 93.200 C 278.840 93.200,279.200 93.020,279.200 92.800 C 279.200 92.580,279.740 92.400,280.400 92.400 C 281.060 92.400,281.600 92.236,281.600 92.035 C 281.600 91.834,282.358 91.542,283.285 91.386 C 284.211 91.229,285.246 90.965,285.585 90.800 C 286.710 90.249,289.045 89.600,289.905 89.600 C 290.371 89.600,290.864 89.420,291.000 89.200 C 291.136 88.980,292.047 88.800,293.024 88.800 C 294.001 88.800,294.800 88.620,294.800 88.400 C 294.800 88.156,296.634 88.000,299.502 88.000 L 304.205 88.000 304.729 89.300 C 305.017 90.015,305.421 90.913,305.626 91.295 C 305.832 91.677,306.000 92.262,306.000 92.595 C 306.000 92.928,306.180 93.200,306.400 93.200 C 306.620 93.200,306.800 93.920,306.800 94.800 C 306.800 95.680,306.980 96.400,307.200 96.400 C 307.420 96.400,307.600 96.940,307.600 97.600 C 307.600 98.260,307.746 98.800,307.923 98.800 C 308.541 98.800,310.090 112.634,310.074 118.000 C 310.058 123.412,308.567 135.600,307.922 135.600 C 307.745 135.600,307.600 136.140,307.600 136.800 C 307.600 137.460,307.420 138.000,307.200 138.000 C 305.391 138.000,307.257 142.720,310.300 145.841 C 310.795 146.348,311.200 147.002,311.200 147.294 C 311.200 147.585,311.560 148.083,312.000 148.400 C 312.440 148.717,312.800 149.173,312.800 149.413 C 312.800 149.653,313.115 150.198,313.500 150.625 C 313.885 151.051,314.455 151.895,314.768 152.500 C 315.080 153.105,315.485 153.600,315.668 153.600 C 315.850 153.600,316.000 153.960,316.000 154.400 C 316.000 154.840,316.180 155.200,316.400 155.200 C 316.620 155.200,316.800 155.455,316.800 155.767 C 316.800 156.078,316.935 156.393,317.100 156.467 C 317.532 156.659,319.200 159.972,319.200 160.638 C 319.200 160.947,319.380 161.200,319.600 161.200 C 319.820 161.200,320.000 161.560,320.000 162.000 C 320.000 162.440,320.180 162.800,320.400 162.800 C 320.620 162.800,320.800 163.160,320.800 163.600 C 320.800 164.040,320.980 164.400,321.200 164.400 C 321.420 164.400,321.600 164.940,321.600 165.600 C 321.600 166.260,321.780 166.800,322.000 166.800 C 322.220 166.800,322.400 167.239,322.400 167.776 C 322.400 168.313,322.580 168.864,322.800 169.000 C 323.020 169.136,323.200 169.676,323.200 170.200 C 323.200 170.724,323.380 171.264,323.600 171.400 C 323.820 171.536,324.000 172.177,324.000 172.824 C 324.000 173.471,324.142 174.000,324.317 174.000 C 324.614 174.000,325.063 176.748,326.082 184.800 C 326.611 188.989,326.616 201.737,326.091 208.200 C 325.443 216.162,324.771 221.760,324.375 222.495 C 324.169 222.877,324.000 223.912,324.000 224.795 C 324.000 225.678,323.820 226.400,323.600 226.400 C 323.380 226.400,323.200 227.030,323.200 227.800 C 323.200 228.570,323.020 229.200,322.800 229.200 C 322.580 229.200,322.400 229.920,322.400 230.800 C 322.400 231.680,322.220 232.400,322.000 232.400 C 321.780 232.400,321.600 232.940,321.600 233.600 C 321.600 234.260,321.420 234.800,321.200 234.800 C 320.980 234.800,320.800 235.340,320.800 236.000 C 320.800 236.660,320.620 237.200,320.400 237.200 C 320.180 237.200,320.000 237.740,320.000 238.400 C 320.000 239.060,319.820 239.600,319.600 239.600 C 319.380 239.600,319.200 239.960,319.200 240.400 C 319.200 240.840,319.020 241.200,318.800 241.200 C 318.580 241.200,318.400 241.650,318.400 242.200 C 318.400 242.750,318.220 243.200,318.000 243.200 C 317.780 243.200,317.600 243.560,317.600 244.000 C 317.600 244.440,317.420 244.800,317.200 244.800 C 316.980 244.800,316.800 245.160,316.800 245.600 C 316.800 246.040,316.620 246.400,316.400 246.400 C 316.180 246.400,316.000 246.760,316.000 247.200 C 316.000 247.640,315.820 248.000,315.600 248.000 C 315.380 248.000,315.200 248.360,315.200 248.800 C 315.200 249.240,315.020 249.600,314.800 249.600 C 314.580 249.600,314.400 249.878,314.400 250.217 C 314.400 250.556,314.040 251.220,313.600 251.692 C 313.160 252.164,312.800 252.787,312.800 253.075 C 312.800 253.364,312.620 253.600,312.400 253.600 C 312.180 253.600,312.000 253.825,312.000 254.100 C 311.999 254.375,311.549 255.123,311.000 255.762 C 310.450 256.401,310.000 257.049,310.000 257.201 C 310.000 257.444,309.523 258.086,308.007 259.883 C 307.783 260.149,307.600 260.465,307.600 260.587 C 307.600 260.953,296.834 271.600,296.463 271.600 C 296.274 271.600,295.554 272.140,294.863 272.800 C 294.172 273.460,293.426 274.000,293.204 274.000 C 292.982 274.000,292.800 274.158,292.800 274.351 C 292.800 274.545,292.245 274.933,291.566 275.214 C 290.887 275.495,290.117 275.922,289.854 276.163 C 289.157 276.800,287.111 278.014,286.300 278.271 C 285.915 278.393,285.600 278.652,285.600 278.847 C 285.600 279.041,285.240 279.200,284.800 279.200 C 284.360 279.200,284.000 279.380,284.000 279.600 C 284.000 279.820,283.640 280.000,283.200 280.000 C 282.760 280.000,282.400 280.180,282.400 280.400 C 282.400 280.620,282.040 280.800,281.600 280.800 C 281.160 280.800,280.800 280.980,280.800 281.200 C 280.800 281.420,280.440 281.600,280.000 281.600 C 279.560 281.600,279.200 281.780,279.200 282.000 C 279.200 282.220,278.750 282.400,278.200 282.400 C 277.650 282.400,277.200 282.580,277.200 282.800 C 277.200 283.020,276.840 283.200,276.400 283.200 C 275.960 283.200,275.600 283.380,275.600 283.600 C 275.600 283.820,275.161 284.000,274.624 284.000 C 274.087 284.000,273.536 284.180,273.400 284.400 C 273.264 284.620,272.803 284.800,272.376 284.800 C 271.949 284.800,271.600 284.980,271.600 285.200 C 271.600 285.420,271.060 285.600,270.400 285.600 C 269.740 285.600,269.200 285.780,269.200 286.000 C 269.200 286.220,268.660 286.400,268.000 286.400 C 267.340 286.400,266.800 286.580,266.800 286.800 C 266.800 287.020,266.181 287.200,265.424 287.200 C 264.667 287.200,263.936 287.380,263.800 287.600 C 263.664 287.820,263.023 288.000,262.376 288.000 C 261.729 288.000,261.200 288.180,261.200 288.400 C 261.200 288.620,260.570 288.800,259.800 288.800 C 259.030 288.800,258.400 288.980,258.400 289.200 C 258.400 289.420,257.500 289.600,256.400 289.600 C 255.300 289.600,254.400 289.780,254.400 290.000 C 254.400 290.220,253.500 290.400,252.400 290.400 C 251.300 290.400,250.400 290.556,250.400 290.746 C 250.400 290.937,249.185 291.207,247.700 291.346 C 233.719 292.659,233.822 292.595,238.376 297.203 C 239.929 298.775,241.200 300.302,241.200 300.597 C 241.200 300.892,241.336 301.193,241.502 301.267 C 241.954 301.466,244.800 307.412,244.800 308.156 C 244.800 308.510,244.980 308.800,245.200 308.800 C 245.420 308.800,245.600 309.239,245.600 309.776 C 245.600 310.313,245.780 310.864,246.000 311.000 C 246.220 311.136,246.400 311.777,246.400 312.424 C 246.400 313.071,246.580 313.600,246.800 313.600 C 247.020 313.600,247.200 314.320,247.200 315.200 C 247.200 316.080,247.380 316.800,247.600 316.800 C 247.820 316.800,248.000 317.779,248.000 318.976 C 248.000 320.173,248.180 321.264,248.400 321.400 C 248.662 321.562,248.800 333.337,248.800 355.424 C 248.800 377.675,248.936 389.200,249.200 389.200 C 249.420 389.200,249.600 389.650,249.600 390.200 C 249.600 390.750,249.780 391.200,250.000 391.200 C 250.220 391.200,250.400 391.400,250.400 391.644 C 250.400 392.542,253.941 395.600,254.981 395.600 C 255.541 395.600,256.000 395.780,256.000 396.000 C 256.000 396.241,257.667 396.400,260.200 396.400 C 262.733 396.400,264.400 396.241,264.400 396.000 C 264.400 395.780,264.940 395.600,265.600 395.600 C 266.260 395.600,266.800 395.420,266.800 395.200 C 266.800 394.980,267.250 394.800,267.800 394.800 C 268.350 394.800,268.800 394.620,268.800 394.400 C 268.800 394.180,269.250 394.000,269.800 394.000 C 270.350 394.000,270.800 393.820,270.800 393.600 C 270.800 393.380,271.239 393.200,271.776 393.200 C 272.313 393.200,272.864 393.020,273.000 392.800 C 273.136 392.580,273.597 392.400,274.024 392.400 C 274.451 392.400,274.800 392.240,274.800 392.045 C 274.800 391.850,275.610 391.569,276.600 391.421 C 277.590 391.272,278.400 390.982,278.400 390.775 C 278.400 390.569,278.679 390.400,279.019 390.400 C 279.360 390.400,280.384 390.040,281.294 389.600 C 282.205 389.160,283.186 388.800,283.475 388.800 C 283.764 388.800,284.000 388.620,284.000 388.400 C 284.000 388.180,284.360 388.000,284.800 388.000 C 285.240 388.000,285.600 387.820,285.600 387.600 C 285.600 387.380,285.960 387.200,286.400 387.200 C 286.840 387.200,287.200 387.020,287.200 386.800 C 287.200 386.580,287.560 386.400,288.000 386.400 C 288.440 386.400,288.800 386.220,288.800 386.000 C 288.800 385.780,289.160 385.600,289.600 385.600 C 290.040 385.600,290.400 385.420,290.400 385.200 C 290.400 384.980,290.670 384.800,291.000 384.800 C 291.330 384.800,291.600 384.620,291.600 384.400 C 291.600 384.180,291.960 384.000,292.400 384.000 C 292.840 384.000,293.200 383.820,293.200 383.600 C 293.200 383.380,293.560 383.200,294.000 383.200 C 294.440 383.200,294.800 383.020,294.800 382.800 C 294.800 382.580,295.160 382.400,295.600 382.400 C 296.040 382.400,296.400 382.220,296.400 382.000 C 296.400 381.780,296.760 381.600,297.200 381.600 C 297.640 381.600,298.000 381.420,298.000 381.200 C 298.000 380.980,298.236 380.800,298.525 380.800 C 298.813 380.800,299.436 380.440,299.908 380.000 C 300.380 379.560,301.044 379.200,301.383 379.200 C 301.722 379.200,302.000 379.020,302.000 378.800 C 302.000 378.580,302.236 378.400,302.525 378.400 C 302.813 378.400,303.436 378.040,303.908 377.600 C 304.380 377.160,305.044 376.800,305.383 376.800 C 305.722 376.800,306.000 376.620,306.000 376.400 C 306.000 376.180,306.270 376.000,306.600 376.000 C 306.930 376.000,307.202 375.865,307.205 375.700 C 307.207 375.535,307.927 375.056,308.805 374.636 C 309.682 374.215,310.400 373.742,310.400 373.584 C 310.400 373.426,310.940 373.073,311.600 372.800 C 312.260 372.527,312.800 372.157,312.800 371.978 C 312.800 371.800,313.166 371.538,313.613 371.396 C 314.060 371.254,314.862 370.702,315.395 370.169 C 315.928 369.636,316.602 369.200,316.894 369.200 C 317.185 369.200,317.683 368.840,318.000 368.400 C 318.317 367.960,318.807 367.600,319.088 367.600 C 319.370 367.600,319.600 367.420,319.600 367.200 C 319.600 366.980,319.788 366.800,320.018 366.800 C 320.248 366.800,320.856 366.395,321.368 365.900 C 322.865 364.453,323.982 363.600,324.378 363.600 C 324.580 363.600,324.860 363.240,325.000 362.800 C 325.140 362.360,325.526 362.000,325.858 362.000 C 326.191 362.000,327.124 361.325,327.931 360.500 C 328.739 359.675,330.198 358.460,331.174 357.800 C 332.150 357.140,334.901 354.620,337.286 352.200 C 349.859 339.445,354.843 334.138,355.720 332.572 C 355.926 332.203,356.704 331.256,357.448 330.467 C 358.191 329.679,358.800 328.783,358.800 328.477 C 358.800 328.171,359.340 327.417,360.000 326.800 C 360.660 326.183,361.200 325.481,361.200 325.240 C 361.200 324.998,361.341 324.800,361.514 324.800 C 361.686 324.800,362.121 324.305,362.479 323.700 C 362.837 323.095,363.596 322.060,364.165 321.400 C 364.734 320.740,365.199 320.015,365.200 319.788 C 365.200 319.562,365.560 319.117,366.000 318.800 C 366.440 318.483,366.800 317.943,366.800 317.600 C 366.800 317.257,367.160 316.717,367.600 316.400 C 368.040 316.083,368.400 315.586,368.400 315.295 C 368.400 315.004,368.760 314.380,369.200 313.908 C 369.640 313.436,370.000 312.813,370.000 312.525 C 370.000 312.236,370.180 312.000,370.400 312.000 C 370.620 312.000,370.800 311.764,370.800 311.475 C 370.800 311.187,371.121 310.602,371.513 310.175 C 371.905 309.749,372.530 308.770,372.901 308.000 C 373.272 307.230,373.939 306.060,374.385 305.400 C 374.830 304.740,375.196 303.885,375.197 303.500 C 375.199 303.115,375.380 302.800,375.600 302.800 C 375.820 302.800,376.000 302.440,376.000 302.000 C 376.000 301.560,376.180 301.200,376.400 301.200 C 376.620 301.200,376.800 300.922,376.800 300.583 C 376.800 300.244,377.160 299.580,377.600 299.108 C 378.040 298.636,378.400 298.013,378.400 297.725 C 378.400 297.436,378.580 297.200,378.800 297.200 C 379.020 297.200,379.200 296.840,379.200 296.400 C 379.200 295.960,379.380 295.600,379.600 295.600 C 379.820 295.600,380.000 295.335,380.000 295.012 C 380.000 294.689,380.360 293.783,380.800 293.000 C 381.240 292.217,381.600 291.311,381.600 290.988 C 381.600 290.665,381.780 290.400,382.000 290.400 C 382.220 290.400,382.400 290.040,382.400 289.600 C 382.400 289.160,382.580 288.800,382.800 288.800 C 383.020 288.800,383.200 288.440,383.200 288.000 C 383.200 287.560,383.380 287.200,383.600 287.200 C 383.820 287.200,384.000 286.851,384.000 286.424 C 384.000 285.997,384.180 285.536,384.400 285.400 C 384.620 285.264,384.800 284.713,384.800 284.176 C 384.800 283.639,384.980 283.200,385.200 283.200 C 385.420 283.200,385.600 282.840,385.600 282.400 C 385.600 281.960,385.780 281.600,386.000 281.600 C 386.220 281.600,386.400 281.060,386.400 280.400 C 386.400 279.740,386.580 279.200,386.800 279.200 C 387.020 279.200,387.200 278.840,387.200 278.400 C 387.200 277.960,387.380 277.600,387.600 277.600 C 387.820 277.600,388.000 277.060,388.000 276.400 C 388.000 275.740,388.180 275.200,388.400 275.200 C 388.620 275.200,388.800 274.838,388.800 274.395 C 388.800 273.952,388.966 273.277,389.168 272.895 C 390.074 271.185,391.199 267.622,391.440 265.700 C 391.585 264.545,391.860 263.600,392.052 263.600 C 392.243 263.600,392.400 263.060,392.400 262.400 C 392.400 261.740,392.580 261.200,392.800 261.200 C 393.020 261.200,393.200 260.581,393.200 259.824 C 393.200 259.067,393.380 258.336,393.600 258.200 C 393.820 258.064,394.000 257.434,394.000 256.800 C 394.000 256.166,394.180 255.536,394.400 255.400 C 394.620 255.264,394.800 254.443,394.800 253.576 C 394.800 252.709,394.980 252.000,395.200 252.000 C 395.420 252.000,395.600 251.280,395.600 250.400 C 395.600 249.520,395.780 248.800,396.000 248.800 C 396.220 248.800,396.400 247.900,396.400 246.800 C 396.400 245.700,396.580 244.800,396.800 244.800 C 397.020 244.800,397.200 243.900,397.200 242.800 C 397.200 241.700,397.380 240.800,397.600 240.800 C 397.820 240.800,398.000 239.821,398.000 238.624 C 398.000 237.427,398.180 236.336,398.400 236.200 C 398.620 236.064,398.800 234.829,398.800 233.456 C 398.800 231.993,399.007 230.753,399.300 230.460 C 399.689 230.071,399.800 224.435,399.800 205.000 C 399.800 185.565,399.689 179.929,399.300 179.540 C 399.006 179.246,398.800 178.003,398.800 176.520 C 398.800 175.107,398.624 174.000,398.400 174.000 C 398.178 174.000,398.000 172.933,398.000 171.600 C 398.000 170.267,397.822 169.200,397.600 169.200 C 397.380 169.200,397.200 168.221,397.200 167.024 C 397.200 165.827,397.020 164.736,396.800 164.600 C 396.580 164.464,396.400 163.643,396.400 162.776 C 396.400 161.909,396.220 161.200,396.000 161.200 C 395.780 161.200,395.600 160.390,395.600 159.400 C 395.600 158.410,395.420 157.600,395.200 157.600 C 394.980 157.600,394.800 156.880,394.800 156.000 C 394.800 155.120,394.620 154.400,394.400 154.400 C 394.180 154.400,394.000 153.680,394.000 152.800 C 394.000 151.920,393.820 151.200,393.600 151.200 C 393.380 151.200,393.200 150.660,393.200 150.000 C 393.200 149.340,393.020 148.800,392.800 148.800 C 392.580 148.800,392.400 148.181,392.400 147.424 C 392.400 146.667,392.237 145.946,392.037 145.823 C 391.838 145.700,391.551 144.700,391.400 143.600 C 391.249 142.500,390.962 141.500,390.763 141.377 C 390.563 141.254,390.400 140.724,390.400 140.200 C 390.400 139.676,390.220 139.136,390.000 139.000 C 389.780 138.864,389.600 138.324,389.600 137.800 C 389.600 137.276,389.456 136.758,389.279 136.649 C 389.103 136.540,388.710 135.539,388.407 134.425 C 388.104 133.311,387.708 132.400,387.528 132.400 C 387.347 132.400,387.200 131.961,387.200 131.424 C 387.200 130.887,387.020 130.336,386.800 130.200 C 386.580 130.064,386.400 129.603,386.400 129.176 C 386.400 128.749,386.220 128.400,386.000 128.400 C 385.780 128.400,385.600 127.950,385.600 127.400 C 385.600 126.850,385.420 126.400,385.200 126.400 C 384.980 126.400,384.800 126.040,384.800 125.600 C 384.800 125.160,384.620 124.800,384.400 124.800 C 384.180 124.800,384.000 124.440,384.000 124.000 C 384.000 123.560,383.820 123.200,383.600 123.200 C 383.380 123.200,383.200 122.761,383.200 122.224 C 383.200 121.687,383.020 121.136,382.800 121.000 C 382.580 120.864,382.400 120.403,382.400 119.976 C 382.400 119.549,382.220 119.200,382.000 119.200 C 381.780 119.200,381.600 118.840,381.600 118.400 C 381.600 117.960,381.420 117.600,381.200 117.600 C 380.980 117.600,380.800 117.240,380.800 116.800 C 380.800 116.360,380.620 116.000,380.400 116.000 C 380.180 116.000,380.000 115.640,380.000 115.200 C 380.000 114.760,379.820 114.400,379.600 114.400 C 379.380 114.400,379.200 114.040,379.200 113.600 C 379.200 113.160,379.020 112.800,378.800 112.800 C 378.580 112.800,378.400 112.440,378.400 112.000 C 378.400 111.560,378.264 111.200,378.098 111.200 C 377.931 111.200,377.541 110.615,377.230 109.900 C 376.919 109.185,376.554 108.510,376.419 108.400 C 376.284 108.290,375.463 106.805,374.595 105.100 C 373.727 103.395,372.878 102.000,372.708 102.000 C 372.539 102.000,372.400 101.640,372.400 101.200 C 372.400 100.760,372.220 100.400,372.000 100.400 C 371.780 100.400,371.600 100.164,371.600 99.875 C 371.600 99.587,371.240 98.964,370.800 98.492 C 370.360 98.020,370.000 97.396,370.000 97.105 C 370.000 96.814,369.640 96.317,369.200 96.000 C 368.760 95.683,368.400 95.103,368.400 94.712 C 368.400 94.320,368.220 94.000,368.000 94.000 C 367.780 94.000,367.600 93.770,367.600 93.488 C 367.600 93.207,367.240 92.717,366.800 92.400 C 366.360 92.083,366.000 91.620,366.000 91.371 C 366.000 91.122,365.460 90.354,364.800 89.663 C 364.140 88.972,363.600 88.175,363.600 87.892 C 363.600 87.609,363.240 87.117,362.800 86.800 C 362.360 86.483,362.000 85.975,362.000 85.672 C 362.000 85.369,361.505 84.639,360.900 84.050 C 360.295 83.461,359.546 82.533,359.236 81.989 C 358.538 80.764,356.733 78.483,354.500 76.004 C 353.565 74.966,352.800 73.992,352.800 73.839 C 352.800 73.686,351.585 72.354,350.100 70.878 C 348.615 69.402,346.862 67.477,346.205 66.600 C 344.786 64.706,338.384 58.331,336.409 56.846 C 335.644 56.271,333.886 54.675,332.502 53.300 C 331.118 51.925,329.813 50.800,329.603 50.800 C 329.393 50.800,328.411 49.990,327.421 49.000 C 326.431 48.010,325.512 47.200,325.378 47.200 C 325.159 47.200,324.500 46.670,320.292 43.106 C 319.581 42.505,318.725 42.010,318.388 42.006 C 318.052 42.003,317.517 41.640,317.200 41.200 C 316.883 40.760,316.375 40.400,316.072 40.400 C 315.769 40.400,315.017 39.860,314.400 39.200 C 313.783 38.540,313.031 38.000,312.728 38.000 C 312.425 38.000,311.917 37.640,311.600 37.200 C 311.283 36.760,310.786 36.400,310.495 36.400 C 310.204 36.400,309.611 36.069,309.177 35.664 C 308.742 35.259,307.895 34.674,307.293 34.364 C 306.692 34.054,305.851 33.485,305.425 33.100 C 304.998 32.715,304.413 32.400,304.125 32.400 C 303.836 32.400,303.600 32.220,303.600 32.000 C 303.600 31.780,303.364 31.600,303.075 31.600 C 302.787 31.600,302.164 31.240,301.692 30.800 C 301.220 30.360,300.556 30.000,300.217 30.000 C 299.878 30.000,299.600 29.820,299.600 29.600 C 299.600 29.380,299.240 29.200,298.800 29.200 C 298.360 29.200,298.000 29.020,298.000 28.800 C 298.000 28.580,297.828 28.400,297.618 28.400 C 297.407 28.400,296.372 27.894,295.318 27.276 C 294.263 26.657,292.546 25.802,291.501 25.376 C 290.457 24.949,289.602 24.465,289.601 24.300 C 289.601 24.135,289.240 24.000,288.800 24.000 C 288.360 24.000,288.000 23.820,288.000 23.600 C 288.000 23.380,287.640 23.200,287.200 23.200 C 286.760 23.200,286.400 23.020,286.400 22.800 C 286.400 22.580,286.040 22.400,285.600 22.400 C 285.160 22.400,284.800 22.220,284.800 22.000 C 284.800 21.780,284.451 21.600,284.024 21.600 C 283.597 21.600,283.136 21.420,283.000 21.200 C 282.864 20.980,282.313 20.800,281.776 20.800 C 281.239 20.800,280.800 20.620,280.800 20.400 C 280.800 20.180,280.440 20.000,280.000 20.000 C 279.560 20.000,279.200 19.820,279.200 19.600 C 279.200 19.380,278.840 19.200,278.400 19.200 C 277.960 19.200,277.600 19.020,277.600 18.800 C 277.600 18.580,277.060 18.400,276.400 18.400 C 275.740 18.400,275.200 18.220,275.200 18.000 C 275.200 17.780,274.840 17.600,274.400 17.600 C 273.960 17.600,273.600 17.420,273.600 17.200 C 273.600 16.980,273.150 16.800,272.600 16.800 C 272.050 16.800,271.600 16.620,271.600 16.400 C 271.600 16.180,271.238 16.000,270.795 16.000 C 270.352 16.000,269.587 15.792,269.095 15.538 C 267.169 14.542,266.783 14.400,266.005 14.400 C 265.562 14.400,265.200 14.220,265.200 14.000 C 265.200 13.780,264.660 13.600,264.000 13.600 C 263.340 13.600,262.800 13.420,262.800 13.200 C 262.800 12.980,262.271 12.800,261.624 12.800 C 260.977 12.800,260.336 12.620,260.200 12.400 C 260.064 12.180,259.434 12.000,258.800 12.000 C 258.166 12.000,257.536 11.820,257.400 11.600 C 257.264 11.380,256.724 11.200,256.200 11.200 C 255.676 11.200,255.136 11.020,255.000 10.800 C 254.864 10.580,254.144 10.400,253.400 10.400 C 252.656 10.400,251.948 10.240,251.827 10.044 C 251.585 9.652,250.611 9.444,245.700 8.734 C 243.885 8.471,242.400 8.109,242.400 7.928 C 242.400 7.748,241.590 7.600,240.600 7.600 C 239.610 7.600,238.800 7.420,238.800 7.200 C 238.800 6.980,237.821 6.800,236.624 6.800 C 235.427 6.800,234.336 6.620,234.200 6.400 C 234.064 6.180,232.883 6.000,231.576 6.000 C 230.259 6.000,229.200 5.822,229.200 5.600 C 229.200 5.369,227.941 5.200,226.224 5.200 C 224.587 5.200,223.136 5.020,223.000 4.800 C 222.861 4.575,220.929 4.400,218.576 4.400 C 216.059 4.400,214.400 4.241,214.400 4.000 C 214.400 3.741,209.341 3.600,200.024 3.600 C 190.871 3.600,185.557 3.745,185.400 4.000 " stroke="none" fill="#040404" fill-rule="evenodd"></path><path id="path1" d="" stroke="none" fill="#080404" fill-rule="evenodd"></path><path id="path2" d="" stroke="none" fill="#080404" fill-rule="evenodd"></path><path id="path3" d="" stroke="none" fill="#080404" fill-rule="evenodd"></path><path id="path4" d="" stroke="none" fill="#080404" fill-rule="evenodd"></path></g></svg>